# Blender v2.74 (sub 0) OBJ File: ''
# www.blender.org
mtllib arrow.mtl
o Cylinder.000_Cylinder.004
v -0.000000 0.000000 -0.056167
v -0.000000 2.385314 -0.056167
v 0.039716 0.000000 -0.039716
v 0.039716 2.385314 -0.039716
v 0.056167 0.000000 0.000000
v 0.056167 2.385314 0.000000
v 0.039716 0.000000 0.039716
v 0.039716 2.385314 0.039716
v -0.000000 0.000000 0.056167
v -0.000000 2.385314 0.056167
v -0.039716 0.000000 0.039716
v -0.039716 2.385314 0.039716
v -0.056167 0.000000 -0.000000
v -0.056167 2.385314 -0.000000
v -0.039716 0.000000 -0.039716
v -0.039716 2.385314 -0.039716
v -0.000000 2.385314 -0.224837
v 0.158984 2.385314 -0.158984
v 0.224837 2.385314 0.000000
v 0.158984 2.385314 0.158984
v -0.000000 2.385314 0.224837
v -0.158984 2.385314 0.158984
v -0.224837 2.385314 -0.000000
v -0.158984 2.385314 -0.158984
v -0.000000 3.021556 0.000000
v -0.117557 0.161803 0.000000
v -0.190211 0.061803 0.000000
v -0.190211 -0.061803 0.000000
v -0.117557 -0.161803 0.000000
v 0.000000 -0.200000 0.000000
v -0.083125 0.161803 -0.083125
v -0.134500 0.061803 -0.134500
v -0.134500 -0.061803 -0.134500
v -0.083125 -0.161803 -0.083125
v 0.000000 0.161803 -0.117557
v 0.000000 0.061803 -0.190211
v 0.000000 -0.061803 -0.190211
v 0.000000 -0.161803 -0.117557
v 0.083125 0.161803 -0.083125
v 0.134500 0.061803 -0.134500
v 0.134500 -0.061803 -0.134500
v 0.083125 -0.161803 -0.083125
v 0.117557 0.161803 -0.000000
v 0.190211 0.061803 -0.000000
v 0.190211 -0.061803 -0.000000
v 0.117557 -0.161803 0.000000
v 0.083125 0.161803 0.083125
v 0.134500 0.061803 0.134500
v 0.134500 -0.061803 0.134500
v 0.083125 -0.161803 0.083125
v 0.000000 0.161803 0.117557
v 0.000000 0.061803 0.190211
v 0.000000 -0.061803 0.190211
v 0.000000 -0.161803 0.117557
v 0.000000 0.200000 0.000000
v -0.083125 0.161803 0.083125
v -0.134500 0.061803 0.134500
v -0.134500 -0.061803 0.134500
v -0.083125 -0.161803 0.083125
v -0.000000 0.000000 -0.056167
v 2.385314 0.000000 -0.056167
v 0.000000 -0.039716 -0.039716
v 2.385314 -0.039716 -0.039716
v 0.000000 -0.056167 0.000000
v 2.385314 -0.056167 0.000000
v 0.000000 -0.039716 0.039716
v 2.385314 -0.039716 0.039716
v -0.000000 0.000000 0.056167
v 2.385314 0.000000 0.056167
v -0.000000 0.039716 0.039716
v 2.385314 0.039716 0.039716
v -0.000000 0.056167 -0.000000
v 2.385314 0.056167 -0.000000
v -0.000000 0.039716 -0.039716
v 2.385314 0.039716 -0.039716
v 2.385314 0.000000 -0.224837
v 2.385314 -0.158984 -0.158984
v 2.385314 -0.224837 0.000000
v 2.385314 -0.158984 0.158984
v 2.385314 0.000000 0.224837
v 2.385314 0.158984 0.158984
v 2.385314 0.224838 -0.000000
v 2.385314 0.158984 -0.158984
v 3.021556 0.000000 0.000000
v -0.056167 0.000000 -0.000000
v -0.056167 0.000000 -2.385314
v -0.039716 -0.039716 -0.000000
v -0.039716 -0.039716 -2.385314
v 0.000000 -0.056167 0.000000
v 0.000000 -0.056167 -2.385314
v 0.039716 -0.039716 0.000000
v 0.039716 -0.039716 -2.385314
v 0.056167 0.000000 0.000000
v 0.056167 0.000000 -2.385314
v 0.039716 0.039716 0.000000
v 0.039716 0.039716 -2.385314
v -0.000000 0.056167 -0.000000
v 0.000000 0.056167 -2.385314
v -0.039716 0.039716 -0.000000
v -0.039716 0.039716 -2.385314
v -0.224837 0.000000 -2.385314
v -0.158984 -0.158984 -2.385314
v 0.000000 -0.224837 -2.385314
v 0.158984 -0.158984 -2.385314
v 0.224838 0.000000 -2.385314
v 0.158984 0.158984 -2.385314
v 0.000000 0.224837 -2.385314
v -0.158984 0.158984 -2.385314
v 0.000000 0.000000 -3.021556
vn 0.000000 -1.000000 0.000000
vn -1.000000 0.000000 0.000000
vn -0.000000 0.000000 1.000000
vn 0.000000 -0.804200 -0.594300
vn 0.420300 -0.804200 -0.420300
vn 0.549000 -0.630200 -0.549000
vn 0.594300 -0.804200 0.000000
vn 0.776400 -0.630200 0.000000
vn 0.420300 -0.804200 0.420300
vn 0.549000 -0.630200 0.549000
vn 0.000000 -0.804200 0.594300
vn 0.000000 -0.630200 0.776400
vn -0.420300 -0.804200 0.420300
vn -0.549000 -0.630200 0.549000
vn -0.594300 -0.804200 0.000000
vn -0.776400 -0.630200 0.000000
vn -0.420300 -0.804200 -0.420300
vn 0.000000 -0.630200 -0.776400
vn -0.549000 -0.630200 -0.549000
vn 0.000000 -0.499300 -0.866400
vn -0.612700 -0.499300 -0.612700
vn 0.000000 1.000000 0.000000
vn -0.866400 -0.499300 0.000000
vn -0.612700 -0.499300 0.612700
vn 0.000000 -0.499300 0.866400
vn 0.612700 -0.499300 0.612700
vn 0.866400 -0.499300 0.000000
vn 0.612700 -0.499300 -0.612700
vn -0.957300 -0.288900 0.000000
vn -0.676900 -0.288900 -0.676900
vn -0.448000 -0.773600 -0.448000
vn -0.957300 0.288900 0.000000
vn -0.676900 0.288900 -0.676900
vn -0.633600 0.773600 0.000000
vn -0.448000 0.773600 -0.448000
vn 0.000000 -0.288900 -0.957300
vn 0.000000 -0.773600 -0.633600
vn 0.000000 0.288900 -0.957300
vn 0.000000 0.773600 -0.633600
vn 0.676900 -0.288900 -0.676900
vn 0.448000 -0.773600 -0.448000
vn 0.676900 0.288900 -0.676900
vn 0.448000 0.773600 -0.448000
vn 0.957300 -0.288900 0.000000
vn 0.633600 -0.773600 0.000000
vn 0.957300 0.288900 0.000000
vn 0.633600 0.773600 0.000000
vn 0.676900 -0.288900 0.676900
vn 0.448000 -0.773600 0.448000
vn 0.676900 0.288900 0.676900
vn 0.448000 0.773600 0.448000
vn 0.000000 -0.288900 0.957300
vn 0.000000 0.288900 0.957300
vn 0.000000 0.773600 0.633600
vn 0.000000 -0.773600 0.633600
vn -0.676900 -0.288900 0.676900
vn -0.676900 0.288900 0.676900
vn -0.448000 0.773600 0.448000
vn -0.633600 -0.773600 0.000000
vn -0.448000 -0.773600 0.448000
vn -0.804200 0.000000 -0.594300
vn -0.804200 -0.420300 -0.420300
vn -0.630200 -0.549000 -0.549000
vn -0.804200 -0.594300 0.000000
vn -0.630200 -0.776400 0.000000
vn -0.804200 -0.420300 0.420300
vn -0.630200 -0.549000 0.549000
vn -0.804200 0.000000 0.594300
vn -0.630200 0.000000 0.776400
vn -0.804200 0.420300 0.420300
vn -0.630200 0.549000 0.549000
vn -0.804200 0.594300 0.000000
vn -0.630200 0.776400 0.000000
vn -0.630200 0.549000 -0.549000
vn -0.804200 0.420300 -0.420300
vn -0.499300 0.000000 -0.866400
vn -0.499300 0.612700 -0.612700
vn 1.000000 0.000000 0.000000
vn -0.499300 0.866400 0.000000
vn -0.499300 0.612700 0.612700
vn -0.499300 0.000000 0.866400
vn -0.499300 -0.612700 0.612700
vn -0.499300 -0.866400 0.000000
vn -0.499300 -0.612700 -0.612700
vn -0.594300 0.000000 0.804200
vn -0.420300 -0.420300 0.804200
vn -0.549000 -0.549000 0.630200
vn 0.000000 -0.594300 0.804200
vn 0.420300 -0.420300 0.804200
vn 0.549000 -0.549000 0.630200
vn 0.594300 0.000000 0.804200
vn 0.776400 0.000000 0.630200
vn 0.420300 0.420300 0.804200
vn 0.549000 0.549000 0.630200
vn 0.000000 0.594300 0.804200
vn 0.000000 0.776400 0.630200
vn -0.420300 0.420300 0.804200
vn -0.776400 0.000000 0.630200
vn -0.549000 0.549000 0.630200
vn 0.000000 -0.776400 0.630200
vn -0.866400 0.000000 0.499300
vn -0.612700 0.612700 0.499300
vn 0.000000 0.000000 -1.000000
vn 0.000000 0.866400 0.499300
vn 0.612700 0.612700 0.499300
vn 0.866400 0.000000 0.499300
vn 0.612700 -0.612700 0.499300
vn 0.000000 -0.866400 0.499300
vn -0.612700 -0.612700 0.499300
vn -0.630200 0.000000 -0.776400
usemtl None
s off
f 2//1 16//1 24//1
f 14//1 23//1 24//1
f 12//1 22//1 23//1
f 10//1 21//1 22//1
f 10//1 8//1 20//1
f 6//1 19//1 20//1
f 6//1 4//1 18//1
f 2//1 17//1 18//1
f 61//2 75//2 83//2
f 73//2 82//2 83//2
f 71//2 81//2 82//2
f 69//2 80//2 81//2
f 69//2 67//2 79//2
f 65//2 78//2 79//2
f 65//2 63//2 77//2
f 61//2 76//2 77//2
f 86//3 100//3 108//3
f 98//3 107//3 108//3
f 98//3 96//3 106//3
f 94//3 105//3 106//3
f 94//3 92//3 104//3
f 90//3 103//3 104//3
f 90//3 88//3 102//3
f 86//3 101//3 102//3
f 17//1 2//1 24//1
f 16//1 14//1 24//1
f 14//1 12//1 23//1
f 12//1 10//1 22//1
f 21//1 10//1 20//1
f 8//1 6//1 20//1
f 19//1 6//1 18//1
f 4//1 2//1 18//1
f 76//2 61//2 83//2
f 75//2 73//2 83//2
f 73//2 71//2 82//2
f 71//2 69//2 81//2
f 80//2 69//2 79//2
f 67//2 65//2 79//2
f 78//2 65//2 77//2
f 63//2 61//2 77//2
f 101//3 86//3 108//3
f 100//3 98//3 108//3
f 107//3 98//3 106//3
f 96//3 94//3 106//3
f 105//3 94//3 104//3
f 92//3 90//3 104//3
f 103//3 90//3 102//3
f 88//3 86//3 102//3
s 1
f 2//4 4//5 3//6
f 4//5 6//7 5//8
f 6//7 8//9 7//10
f 8//9 10//11 9//12
f 10//11 12//13 11//14
f 12//13 14//15 13//16
f 16//17 2//4 1//18
f 14//15 16//17 15//19
f 13//16 5//8 9//12
f 17//20 24//21 25//22
f 24//21 23//23 25//22
f 23//23 22//24 25//22
f 22//24 21//25 25//22
f 21//25 20//26 25//22
f 20//26 19//27 25//22
f 19//27 18//28 25//22
f 18//28 17//20 25//22
f 28//29 33//30 34//31
f 27//32 32//33 33//30
f 26//34 31//35 32//33
f 33//30 37//36 38//37
f 33//30 32//33 36//38
f 31//35 35//39 36//38
f 37//36 41//40 42//41
f 36//38 40//42 41//40
f 35//39 39//43 40//42
f 41//40 45//44 46//45
f 40//42 44//46 45//44
f 39//43 43//47 44//46
f 45//44 49//48 50//49
f 44//46 48//50 49//48
f 43//47 47//51 48//50
f 50//49 49//48 53//52
f 48//50 52//53 53//52
f 48//50 47//51 51//54
f 54//55 53//52 58//56
f 52//53 57//57 58//56
f 51//54 56//58 57//57
f 30//1 29//59 34//31
f 26//34 55//22 31//35
f 30//1 34//31 38//37
f 31//35 55//22 35//39
f 30//1 38//37 42//41
f 35//39 55//22 39//43
f 30//1 42//41 46//45
f 39//43 55//22 43//47
f 30//1 46//45 50//49
f 43//47 55//22 47//51
f 30//1 50//49 54//55
f 47//51 55//22 51//54
f 30//1 54//55 59//60
f 51//54 55//22 56//58
f 30//1 59//60 29//59
f 58//56 28//29 29//59
f 57//57 27//32 28//29
f 57//57 56//58 26//34
f 56//58 55//22 26//34
f 61//61 63//62 62//63
f 63//62 65//64 64//65
f 65//64 67//66 66//67
f 67//66 69//68 68//69
f 69//68 71//70 70//71
f 71//70 73//72 72//73
f 74//74 75//75 61//61
f 73//72 75//75 74//74
f 72//73 64//65 68//69
f 76//76 83//77 84//78
f 83//77 82//79 84//78
f 82//79 81//80 84//78
f 81//80 80//81 84//78
f 80//81 79//82 84//78
f 79//82 78//83 84//78
f 78//83 77//84 84//78
f 77//84 76//76 84//78
f 86//85 88//86 87//87
f 87//87 88//86 90//88
f 90//88 92//89 91//90
f 92//89 94//91 93//92
f 94//91 96//93 95//94
f 96//93 98//95 97//96
f 100//97 86//85 85//98
f 98//95 100//97 99//99
f 85//98 89//100 91//90
f 101//101 108//102 109//103
f 108//102 107//104 109//103
f 107//104 106//105 109//103
f 106//105 105//106 109//103
f 105//106 104//107 109//103
f 104//107 103//108 109//103
f 103//108 102//109 109//103
f 102//109 101//101 109//103
f 1//18 2//4 3//6
f 3//6 4//5 5//8
f 5//8 6//7 7//10
f 7//10 8//9 9//12
f 9//12 10//11 11//14
f 11//14 12//13 13//16
f 15//19 16//17 1//18
f 13//16 14//15 15//19
f 13//16 15//19 1//18
f 9//12 11//14 13//16
f 5//8 7//10 9//12
f 1//18 3//6 5//8
f 5//8 13//16 1//18
f 29//59 28//29 34//31
f 28//29 27//32 33//30
f 27//32 26//34 32//33
f 34//31 33//30 38//37
f 37//36 33//30 36//38
f 32//33 31//35 36//38
f 38//37 37//36 42//41
f 37//36 36//38 41//40
f 36//38 35//39 40//42
f 42//41 41//40 46//45
f 41//40 40//42 45//44
f 40//42 39//43 44//46
f 46//45 45//44 50//49
f 45//44 44//46 49//48
f 44//46 43//47 48//50
f 54//55 50//49 53//52
f 49//48 48//50 53//52
f 52//53 48//50 51//54
f 59//60 54//55 58//56
f 53//52 52//53 58//56
f 52//53 51//54 57//57
f 59//60 58//56 29//59
f 58//56 57//57 28//29
f 27//32 57//57 26//34
f 60//110 61//61 62//63
f 62//63 63//62 64//65
f 64//65 65//64 66//67
f 66//67 67//66 68//69
f 68//69 69//68 70//71
f 70//71 71//70 72//73
f 60//110 74//74 61//61
f 72//73 73//72 74//74
f 72//73 74//74 60//110
f 68//69 70//71 72//73
f 64//65 66//67 68//69
f 60//110 62//63 64//65
f 64//65 72//73 60//110
f 85//98 86//85 87//87
f 89//100 87//87 90//88
f 89//100 90//88 91//90
f 91//90 92//89 93//92
f 93//92 94//91 95//94
f 95//94 96//93 97//96
f 99//99 100//97 85//98
f 97//96 98//95 99//99
f 93//92 99//99 85//98
f 93//92 95//94 97//96
f 85//98 91//90 93//92
f 85//98 87//87 89//100
f 93//92 97//96 99//99
